<svg width="24" height="24" viewBox="0 0 24 24" fill="none" xmlns="http://www.w3.org/2000/svg">
<path fill-rule="evenodd" clip-rule="evenodd" d="M11.134 5.5C11.5189 4.83333 12.4811 4.83333 12.866 5.5L19.7942 17.5C20.1791 18.1667 19.698 19 18.9282 19H5.0718C4.302 19 3.82088 18.1667 4.20578 17.5L11.134 5.5ZM11 10C11 9.44772 11.4477 9 12 9C12.5523 9 13 9.44772 13 10V13C13 13.5523 12.5523 14 12 14C11.4477 14 11 13.5523 11 13V10ZM12 15C11.4477 15 11 15.4477 11 16C11 16.5523 11.4477 17 12 17C12.5523 17 13 16.5523 13 16C13 15.4477 12.5523 15 12 15Z" fill="black"/>
</svg>
