<svg width="24" height="24" viewBox="0 0 24 24" fill="none" xmlns="http://www.w3.org/2000/svg">
<mask id="path-1-inside-1" fill="white">
<path fill-rule="evenodd" clip-rule="evenodd" d="M12 15L7 19V6C7 5.44772 7.44772 5 8 5H16C16.5523 5 17 5.44772 17 6V19L12 15ZM15 14.8388L12 12.4388L9 14.8388V7H15V14.8388Z"/>
</mask>
<path fill-rule="evenodd" clip-rule="evenodd" d="M12 15L7 19V6C7 5.44772 7.44772 5 8 5H16C16.5523 5 17 5.44772 17 6V19L12 15ZM15 14.8388L12 12.4388L9 14.8388V7H15V14.8388Z" fill="white"/>
<path d="M12 15L10.7506 13.4383L12 12.4388L13.2494 13.4383L12 15ZM7 19L8.24939 20.5617L5 23.1612V19H7ZM17 19H19V23.1612L15.7506 20.5617L17 19ZM15 14.8388H17V19L13.7506 16.4005L15 14.8388ZM12 12.4388L10.7506 10.877L12 9.8775L13.2494 10.877L12 12.4388ZM9 14.8388L10.2494 16.4005L7 19V14.8388H9ZM9 7H7V5H9V7ZM15 7V5H17V7H15ZM5 6C5 4.34315 6.34315 3 8 3V7C8.55229 7 9 6.55229 9 6H5ZM8 3H16V7H8V3ZM16 3C17.6569 3 19 4.34315 19 6H15C15 6.55228 15.4477 7 16 7V3ZM11 7V14.8388H7V7H11ZM15 9H9V5H15V9ZM13 14.8388V7H17V14.8388H13ZM13.2494 16.5617L8.24939 20.5617L5.75061 17.4383L10.7506 13.4383L13.2494 16.5617ZM5 19V6H9V19H5ZM19 6V19H15V6H19ZM15.7506 20.5617L10.7506 16.5617L13.2494 13.4383L18.2494 17.4383L15.7506 20.5617ZM13.2494 10.877L16.2494 13.277L13.7506 16.4005L10.7506 14.0005L13.2494 10.877ZM7.75061 13.277L10.7506 10.877L13.2494 14.0005L10.2494 16.4005L7.75061 13.277Z" fill="white" mask="url(#path-1-inside-1)"/>
</svg>
