<svg width="24" height="24" viewBox="0 0 24 24" fill="none" xmlns="http://www.w3.org/2000/svg">
<g id="checkbox_check">
<path id="Rectangle (Stroke)" fill-rule="evenodd" clip-rule="evenodd" d="M7 7V17H17V7H7ZM6 5C5.44772 5 5 5.44772 5 6V18C5 18.5523 5.44772 19 6 19H18C18.5523 19 19 18.5523 19 18V6C19 5.44772 18.5523 5 18 5H6Z" fill="black"/>
<path id="Rectangle" d="M8.25 13.25L10.2929 15.2929C10.6834 15.6834 11.3166 15.6834 11.7071 15.2929L15.75 11.25C16.1642 10.8358 16.1642 10.1642 15.75 9.75C15.3358 9.33579 14.6642 9.33579 14.25 9.75L11 13L9.75 11.75C9.33579 11.3358 8.66421 11.3358 8.25 11.75C7.83579 12.1642 7.83579 12.8358 8.25 13.25Z" fill="black"/>
</g>
</svg>
