<svg width="24" height="24" viewBox="0 0 24 24" fill="none" xmlns="http://www.w3.org/2000/svg">
<path d="M5.29289 17.2929C4.90237 17.6834 4.90237 18.3166 5.29289 18.7071C5.68342 19.0976 6.31658 19.0976 6.70711 18.7071L12 13.4142L17.3787 18.7929C17.7692 19.1834 18.4024 19.1834 18.7929 18.7929C19.1834 18.4024 19.1834 17.7692 18.7929 17.3787L13.4142 12L18.7071 6.70705C19.0977 6.31652 19.0977 5.68336 18.7071 5.29283C18.3166 4.90231 17.6834 4.90231 17.2929 5.29283L12 10.5858L6.70711 5.29288C6.31659 4.90235 5.68342 4.90235 5.2929 5.29287C4.90238 5.6834 4.90238 6.31656 5.2929 6.70709L10.5858 12L5.29289 17.2929Z" fill="white"/>
</svg>
