<svg width="24" height="24" viewBox="0 0 24 24" fill="none" xmlns="http://www.w3.org/2000/svg">
<g id="collection">
<g id="Vector">
<path d="M5 4C4.44772 4 4 4.44772 4 5V13C4 13.5523 4.44772 14 5 14H6V7C6 6.44772 6.44772 6 7 6H14V5C14 4.44772 13.5523 4 13 4H5Z" fill="black"/>
<path d="M8 7C7.44772 7 7 7.44772 7 8V16C7 16.5523 7.44772 17 8 17H9V10C9 9.44772 9.44772 9 10 9H17V8C17 7.44772 16.5523 7 16 7H8Z" fill="black"/>
<path d="M10 11C10 10.4477 10.4477 10 11 10H19C19.5523 10 20 10.4477 20 11V19C20 19.5523 19.5523 20 19 20H11C10.4477 20 10 19.5523 10 19V11Z" fill="black"/>
</g>
</g>
</svg>
