<svg width="24" height="24" viewBox="0 0 24 24" fill="none" xmlns="http://www.w3.org/2000/svg">
<path fill-rule="evenodd" clip-rule="evenodd" d="M5 17V7C5 6.44772 5.44772 6 6 6H10.382C10.7607 6 11.107 6.214 11.2764 6.55279L11.7236 7.44721C11.893 7.786 12.2393 8 12.618 8H18C18.5523 8 19 8.44772 19 9V17C19 17.5523 18.5523 18 18 18H6C5.44772 18 5 17.5523 5 17ZM7.5 10C7.22386 10 7 10.2239 7 10.5V15.5C7 15.7761 7.22386 16 7.5 16H16.5C16.7761 16 17 15.7761 17 15.5V10.5C17 10.2239 16.7761 10 16.5 10H7.5Z" fill="white"/>
<path fill-rule="evenodd" clip-rule="evenodd" d="M5 17V7C5 6.44772 5.44772 6 6 6H10.382C10.7607 6 11.107 6.214 11.2764 6.55279L11.7236 7.44721C11.893 7.786 12.2393 8 12.618 8H18C18.5523 8 19 8.44772 19 9V17C19 17.5523 18.5523 18 18 18H6C5.44772 18 5 17.5523 5 17ZM7.5 10C7.22386 10 7 10.2239 7 10.5V15.5C7 15.7761 7.22386 16 7.5 16H16.5C16.7761 16 17 15.7761 17 15.5V10.5C17 10.2239 16.7761 10 16.5 10H7.5Z" fill="white"/>
</svg>
