<svg width="24" height="24" viewBox="0 0 24 24" fill="none" xmlns="http://www.w3.org/2000/svg">
<g id="menu_dots">
<g id="Group">
<path id="Line (Stroke)" fill-rule="evenodd" clip-rule="evenodd" d="M10.5 7.5C10.5 6.67157 11.1716 6 12 6V6C12.8284 6 13.5 6.67157 13.5 7.5V7.5C13.5 8.32843 12.8284 9 12 9V9C11.1716 9 10.5 8.32843 10.5 7.5V7.5Z" fill="black"/>
<path id="Line (Stroke)_2" fill-rule="evenodd" clip-rule="evenodd" d="M10.5 12.5C10.5 11.6716 11.1716 11 12 11V11C12.8284 11 13.5 11.6716 13.5 12.5V12.5C13.5 13.3284 12.8284 14 12 14V14C11.1716 14 10.5 13.3284 10.5 12.5V12.5Z" fill="black"/>
<path id="Line (Stroke)_3" fill-rule="evenodd" clip-rule="evenodd" d="M10.5 17.5C10.5 16.6716 11.1716 16 12 16V16C12.8284 16 13.5 16.6716 13.5 17.5V17.5C13.5 18.3284 12.8284 19 12 19V19C11.1716 19 10.5 18.3284 10.5 17.5V17.5Z" fill="black"/>
</g>
</g>
</svg>
