<svg width="24" height="24" viewBox="0 0 24 24" fill="none" xmlns="http://www.w3.org/2000/svg">
<g id="menu">
<path id="Line (Stroke)" fill-rule="evenodd" clip-rule="evenodd" d="M5 7C5 6.44772 5.44772 6 6 6L18 6C18.5523 6 19 6.44772 19 7V7C19 7.55228 18.5523 8 18 8L6 8C5.44772 8 5 7.55228 5 7V7Z" fill="black"/>
<path id="Line (Stroke)_2" fill-rule="evenodd" clip-rule="evenodd" d="M5 12C5 11.4477 5.44772 11 6 11L18 11C18.5523 11 19 11.4477 19 12V12C19 12.5523 18.5523 13 18 13L6 13C5.44772 13 5 12.5523 5 12V12Z" fill="black"/>
<path id="Line (Stroke)_3" fill-rule="evenodd" clip-rule="evenodd" d="M5 17C5 16.4477 5.44772 16 6 16H18C18.5523 16 19 16.4477 19 17V17C19 17.5523 18.5523 18 18 18H6C5.44772 18 5 17.5523 5 17V17Z" fill="black"/>
</g>
</svg>
