<svg width="24" height="24" viewBox="0 0 24 24" fill="none" xmlns="http://www.w3.org/2000/svg">
<path d="M11 19C11 18.4477 11.4477 18 12 18C12.5523 18 13 18.4477 13 19C13 19.5523 12.5523 20 12 20C11.4477 20 11 19.5523 11 19Z" fill="white"/>
<path d="M12 7C11.0282 7 10.1644 7.46205 9.61612 8.17844C9.29133 8.60284 8.71579 8.8579 8.23779 8.6189C7.7321 8.36605 7.49295 7.76002 7.80031 7.28548C8.69115 5.91007 10.2393 5 12 5C14.7614 5 17 7.23858 17 10C17 12.419 15.2822 14.4367 13 14.9L13 16C13 16.5523 12.5523 17 12 17C11.4477 17 11 16.5523 11 16L11 14C11 13.4477 11.4477 13 12 13C13.6568 13 15 11.6569 15 10C15 8.34315 13.6568 7 12 7Z" fill="white"/>
</svg>
