<svg width="24" height="24" viewBox="0 0 24 24" fill="none" xmlns="http://www.w3.org/2000/svg">
<g id="refresh">
<path id="Vector (Stroke)" fill-rule="evenodd" clip-rule="evenodd" d="M17.6575 11.9506C17.841 11.8818 18.0479 11.9266 18.1866 12.0652L20.7071 14.5858C21.0976 14.9763 21.0976 15.6095 20.7071 16V16C20.3166 16.3905 19.6834 16.3905 19.2929 16L18.3686 15.0757C17.5025 17.6477 15.0711 19.5 12.2071 19.5C9.58335 19.5 7.32453 17.9461 6.29743 15.7097C6.06694 15.2078 6.38272 14.6503 6.91416 14.5V14.5C7.44559 14.3497 7.98918 14.667 8.25366 15.1518C9.01707 16.5513 10.5022 17.5 12.2071 17.5C14.1496 17.5 15.8045 16.2693 16.4349 14.5451L14.9946 15.0852C14.4775 15.2791 13.901 15.0171 13.7071 14.5V14.5C13.5132 13.9829 13.7752 13.4065 14.2923 13.2126L17.6575 11.9506Z" fill="black"/>
<path id="Vector (Stroke)_2" fill-rule="evenodd" clip-rule="evenodd" d="M6.75679 12.5494C6.5732 12.6182 6.36632 12.5734 6.22767 12.4348L3.70712 9.91421C3.3166 9.52368 3.3166 8.89052 3.70712 8.49999V8.49999C4.09765 8.10947 4.73081 8.10947 5.12134 8.49999L6.0456 9.42426C6.91173 6.85229 9.34311 4.99999 12.2071 4.99999C14.8309 4.99999 17.0897 6.55392 18.1168 8.79034C18.3473 9.29223 18.0315 9.84968 17.5001 9.99999V9.99999C16.9687 10.1503 16.4251 9.833 16.1606 9.34816C15.3972 7.94873 13.9121 6.99999 12.2071 6.99999C10.2647 6.99999 8.6097 8.2307 7.97939 9.95489L9.41967 9.41479C9.93679 9.22087 10.5132 9.48287 10.7071 9.99999V9.99999C10.901 10.5171 10.639 11.0935 10.1219 11.2874L6.75679 12.5494Z" fill="black"/>
</g>
</svg>
