<svg width="24" height="24" viewBox="0 0 24 24" fill="none" xmlns="http://www.w3.org/2000/svg">
<path fill-rule="evenodd" clip-rule="evenodd" d="M14.4765 15.8908C13.4957 16.5892 12.2958 17 11 17C7.68628 17 4.99998 14.3137 4.99998 11C4.99998 7.68629 7.68628 5 11 5C14.3137 5 17 7.68629 17 11C17 12.2958 16.5892 13.4957 15.8907 14.4766L18.9999 17.5858C19.3905 17.9763 19.3905 18.6095 18.9999 19C18.6094 19.3905 17.9762 19.3905 17.5857 19L14.4765 15.8908ZM15 11C15 13.2091 13.2091 15 11 15C8.79085 15 6.99998 13.2091 6.99998 11C6.99998 8.79086 8.79085 7 11 7C13.2091 7 15 8.79086 15 11Z" fill="white"/>
</svg>
