<svg width="24" height="24" viewBox="0 0 24 24" fill="none" xmlns="http://www.w3.org/2000/svg">
<g id="settings">
<path id="Subtract" fill-rule="evenodd" clip-rule="evenodd" d="M13.9521 5.79823C13.5824 5.68197 13.2808 5.39708 13.1913 5.01998L12.9628 4.05735C12.6472 4.01948 12.3259 4 12 4C11.6742 4 11.3528 4.01948 11.0372 4.05735L10.8087 5.01998C10.7193 5.39708 10.4177 5.68197 10.0479 5.79823C9.86462 5.85587 9.68481 5.92142 9.50889 5.99447C9.151 6.1431 8.73693 6.11867 8.42602 5.88735L7.63203 5.2966C7.09166 5.64944 6.59656 6.06584 6.15737 6.53521L6.60141 7.42001C6.77519 7.76628 6.72745 8.17822 6.51884 8.50468C6.41594 8.6657 6.31994 8.83156 6.23126 9.00184C6.05246 9.34517 5.71979 9.59212 5.33335 9.61474L4.34382 9.67266C4.16016 10.2776 4.04624 10.9129 4.01141 11.5692L4.92076 11.9618C5.27642 12.1153 5.50461 12.4615 5.55452 12.8457C5.57937 13.037 5.61254 13.2256 5.65364 13.4113C5.73733 13.7893 5.64126 14.1924 5.35973 14.4581L4.63908 15.1384C4.89362 15.7346 5.21848 16.2937 5.60324 16.8051L6.55306 16.521C6.92389 16.4101 7.32094 16.5283 7.6061 16.79C7.74722 16.9195 7.89409 17.0429 8.04627 17.1597C8.35316 17.3952 8.53829 17.7655 8.49349 18.1498L8.37858 19.1353C8.94594 19.4238 9.5523 19.6467 10.1877 19.7938L10.7333 18.9647C10.9459 18.6417 11.3256 18.4769 11.712 18.4937C11.8075 18.4979 11.9035 18.5 12 18.5C12.0965 18.5 12.1925 18.4979 12.288 18.4937C12.6744 18.4769 13.0541 18.6417 13.2667 18.9647L13.8124 19.7938C14.4477 19.6467 15.0541 19.4238 15.6214 19.1353L15.5065 18.1498C15.4617 17.7655 15.6469 17.3952 15.9538 17.1597C16.1059 17.0429 16.2528 16.9195 16.3939 16.79C16.6791 16.5283 17.0761 16.4101 17.447 16.521L18.3968 16.8051C18.7815 16.2937 19.1064 15.7346 19.3609 15.1384L18.6403 14.4581C18.3588 14.1924 18.2627 13.7893 18.3464 13.4113C18.3875 13.2256 18.4206 13.037 18.4455 12.8457C18.4954 12.4615 18.7236 12.1153 19.0793 11.9618L19.9886 11.5692C19.9538 10.9129 19.8399 10.2776 19.6562 9.67266L18.6667 9.61474C18.2802 9.59212 17.9476 9.34517 17.7688 9.00184C17.6801 8.83156 17.5841 8.66571 17.4812 8.50469C17.2726 8.17822 17.2248 7.76629 17.3986 7.42002L17.8427 6.53521C17.4035 6.06584 16.9084 5.64943 16.368 5.2966L15.574 5.88735C15.2631 6.11868 14.849 6.1431 14.4911 5.99448C14.3152 5.92142 14.1354 5.85588 13.9521 5.79823ZM12 16.5C14.4853 16.5 16.5 14.4853 16.5 12C16.5 9.51472 14.4853 7.5 12 7.5C9.51472 7.5 7.5 9.51472 7.5 12C7.5 14.4853 9.51472 16.5 12 16.5Z" fill="black"/>
</g>
</svg>
